<svg width="72" height="73" viewBox="0 0 72 73" fill="none" xmlns="http://www.w3.org/2000/svg">
<mask id="path-1-inside-1_46_4048" fill="white">
<path d="M4.94111 36.4286C4.22499 36.322 3.56685 36.8175 3.50532 37.5396C3.18998 41.2394 3.5446 44.9745 4.55377 48.536C5.68166 52.5166 7.60013 56.185 10.176 59.2866C12.7518 62.3882 15.9234 64.8486 19.4704 66.4971C23.0174 68.1456 26.8548 68.9426 30.7164 68.8329C34.5779 68.7231 38.371 67.7091 41.8323 65.8614C45.2935 64.0137 48.3401 61.3765 50.7603 58.1329C53.1806 54.8892 54.9166 51.1169 55.8478 47.0778C56.6753 43.4887 56.8497 39.7654 56.366 36.1128C56.2668 35.3639 55.5427 34.8693 54.8115 35.021C54.1241 35.1635 53.6842 35.8271 53.7769 36.5312C54.2098 39.8181 54.0517 43.1682 53.3071 46.3978C52.4674 50.0396 50.9021 53.4409 48.7199 56.3656C46.5377 59.2902 43.7908 61.668 40.6699 63.334C37.549 65 34.129 65.9143 30.6472 66.0132C27.1655 66.1122 23.7054 65.3936 20.5072 63.9072C17.3091 62.4209 14.4495 60.2024 12.1269 57.4058C9.80441 54.6093 8.07461 51.3016 7.05765 47.7126C6.15943 44.5425 5.8363 41.2201 6.10165 37.9262C6.15984 37.2038 5.65723 36.5353 4.94111 36.4286Z"/>
</mask>
<path d="M4.94111 36.4286C4.22499 36.322 3.56685 36.8175 3.50532 37.5396C3.18998 41.2394 3.5446 44.9745 4.55377 48.536C5.68166 52.5166 7.60013 56.185 10.176 59.2866C12.7518 62.3882 15.9234 64.8486 19.4704 66.4971C23.0174 68.1456 26.8548 68.9426 30.7164 68.8329C34.5779 68.7231 38.371 67.7091 41.8323 65.8614C45.2935 64.0137 48.3401 61.3765 50.7603 58.1329C53.1806 54.8892 54.9166 51.1169 55.8478 47.0778C56.6753 43.4887 56.8497 39.7654 56.366 36.1128C56.2668 35.3639 55.5427 34.8693 54.8115 35.021C54.1241 35.1635 53.6842 35.8271 53.7769 36.5312C54.2098 39.8181 54.0517 43.1682 53.3071 46.3978C52.4674 50.0396 50.9021 53.4409 48.7199 56.3656C46.5377 59.2902 43.7908 61.668 40.6699 63.334C37.549 65 34.129 65.9143 30.6472 66.0132C27.1655 66.1122 23.7054 65.3936 20.5072 63.9072C17.3091 62.4209 14.4495 60.2024 12.1269 57.4058C9.80441 54.6093 8.07461 51.3016 7.05765 47.7126C6.15943 44.5425 5.8363 41.2201 6.10165 37.9262C6.15984 37.2038 5.65723 36.5353 4.94111 36.4286Z" fill="#FAF8F4" stroke="#FAF8F4" stroke-width="2" mask="url(#path-1-inside-1_46_4048)"/>
<mask id="path-2-inside-2_46_4048" fill="white">
<path d="M55.7709 36.4133C55.7709 39.4366 44.196 41.8875 29.9177 41.8875C15.6393 41.8875 4.06445 39.4366 4.06445 36.4133C4.06445 33.39 15.6393 30.9391 29.9177 30.9391C44.196 30.9391 55.7709 33.39 55.7709 36.4133ZM11.7467 36.4133C11.7467 38.5382 19.8821 40.2608 29.9177 40.2608C39.9532 40.2608 48.0887 38.5382 48.0887 36.4133C48.0887 34.2883 39.9532 32.5657 29.9177 32.5657C19.8821 32.5657 11.7467 34.2883 11.7467 36.4133Z"/>
</mask>
<path d="M55.7709 36.4133C55.7709 39.4366 44.196 41.8875 29.9177 41.8875C15.6393 41.8875 4.06445 39.4366 4.06445 36.4133C4.06445 33.39 15.6393 30.9391 29.9177 30.9391C44.196 30.9391 55.7709 33.39 55.7709 36.4133ZM11.7467 36.4133C11.7467 38.5382 19.8821 40.2608 29.9177 40.2608C39.9532 40.2608 48.0887 38.5382 48.0887 36.4133C48.0887 34.2883 39.9532 32.5657 29.9177 32.5657C19.8821 32.5657 11.7467 34.2883 11.7467 36.4133Z" fill="#FAF8F4" stroke="#FAF8F4" stroke-width="2" mask="url(#path-2-inside-2_46_4048)"/>
<mask id="path-3-inside-3_46_4048" fill="white">
<path d="M49.0384 58.3205C48.5624 59.0441 48.7314 60.0719 49.4942 60.4588C50.6115 61.0255 51.8498 61.3417 53.1552 61.3885C54.9992 61.4546 56.9203 60.981 58.7483 60.0096C60.5762 59.0382 62.2547 57.599 63.6349 55.8195C65.0151 54.04 66.0546 51.9752 66.6611 49.8079C67.2676 47.6406 67.4226 45.4377 67.1122 43.3944C66.8018 41.3511 66.0357 39.5304 64.8817 38.0936C63.7277 36.6568 62.2214 35.6483 60.4963 35.1573C59.0807 34.7545 57.5537 34.7103 56.0077 35.0228C55.4057 35.1445 55.0193 35.7429 55.0585 36.4001C55.1132 37.3164 55.9566 37.9497 56.8095 37.8714C57.708 37.7888 58.5881 37.8654 59.4186 38.1017C60.7515 38.481 61.9152 39.2602 62.8068 40.3703C63.6984 41.4804 64.2904 42.8871 64.5302 44.4658C64.77 46.0445 64.6503 47.7464 64.1816 49.4209C63.713 51.0954 62.9099 52.6907 61.8436 54.0656C60.7772 55.4404 59.4804 56.5524 58.0681 57.3029C56.6558 58.0534 55.1715 58.4193 53.7468 58.3683C52.8604 58.3365 52.014 58.1439 51.2359 57.8005C50.4561 57.4563 49.5144 57.5968 49.0384 58.3205Z"/>
</mask>
<path d="M49.0384 58.3205C48.5624 59.0441 48.7314 60.0719 49.4942 60.4588C50.6115 61.0255 51.8498 61.3417 53.1552 61.3885C54.9992 61.4546 56.9203 60.981 58.7483 60.0096C60.5762 59.0382 62.2547 57.599 63.6349 55.8195C65.0151 54.04 66.0546 51.9752 66.6611 49.8079C67.2676 47.6406 67.4226 45.4377 67.1122 43.3944C66.8018 41.3511 66.0357 39.5304 64.8817 38.0936C63.7277 36.6568 62.2214 35.6483 60.4963 35.1573C59.0807 34.7545 57.5537 34.7103 56.0077 35.0228C55.4057 35.1445 55.0193 35.7429 55.0585 36.4001C55.1132 37.3164 55.9566 37.9497 56.8095 37.8714C57.708 37.7888 58.5881 37.8654 59.4186 38.1017C60.7515 38.481 61.9152 39.2602 62.8068 40.3703C63.6984 41.4804 64.2904 42.8871 64.5302 44.4658C64.77 46.0445 64.6503 47.7464 64.1816 49.4209C63.713 51.0954 62.9099 52.6907 61.8436 54.0656C60.7772 55.4404 59.4804 56.5524 58.0681 57.3029C56.6558 58.0534 55.1715 58.4193 53.7468 58.3683C52.8604 58.3365 52.014 58.1439 51.2359 57.8005C50.4561 57.4563 49.5144 57.5968 49.0384 58.3205Z" fill="#FAF8F4" stroke="#FAF8F4" stroke-width="2" mask="url(#path-3-inside-3_46_4048)"/>
<path d="M30.7758 22.7079C30.2462 22.3824 29.1824 21.0705 28.76 19.3862C28.2113 17.198 29.4792 15.3197 30.2782 13.7538C31.1592 12.0271 31.4607 8.51349 31.0441 5.74045C30.5498 4.13383 29.8649 3.14743 29.4095 2.49147C29.1801 2.16102 28.9541 1.8355 28.7212 1.50012" stroke="#FAF8F4" stroke-width="3" stroke-linecap="round"/>
<path d="M39.8133 23.63C39.1772 22.9851 37.5809 21.8488 36.7348 20.4728C36.2995 19.7649 36.4528 18.688 36.4924 17.6356C36.5643 15.723 38.6083 14.2278 39.4904 12.8482C39.8925 11.0622 40.0533 9.44404 39.7353 7.85999C39.5756 7.49256 39.338 7.17137 38.6131 6.11047" stroke="#FAF8F4" stroke-width="3" stroke-linecap="round"/>
<path d="M24.1762 23.63C23.3811 22.9851 21.3858 21.8488 20.3281 20.4728C19.784 19.7649 19.9756 18.688 20.0251 17.6356C20.115 15.723 22.67 14.2278 23.7727 12.8482C24.2752 11.0622 24.4763 9.44404 24.0787 7.85999C23.8792 7.49256 23.5821 7.17137 22.676 6.11047" stroke="#FAF8F4" stroke-width="3" stroke-linecap="round"/>
</svg>
