<svg width="38" height="38" viewBox="0 0 38 38" fill="none" xmlns="http://www.w3.org/2000/svg">
<path d="M19.1186 13.8594V8.28844H13.236V5.57092H19.1186V0H21.965V5.57092H27.8003V8.28844H21.965V13.8594H19.1186ZM10.8065 38C9.86435 38 9.06117 37.6798 8.397 37.0394C7.73283 36.3989 7.40075 35.629 7.40075 34.7295C7.40075 33.83 7.73616 33.0632 8.40697 32.4291C9.07778 31.795 9.88427 31.478 10.8264 31.478C11.7686 31.478 12.5718 31.7982 13.236 32.4386C13.9001 33.079 14.2322 33.849 14.2322 34.7485C14.2322 35.648 13.8968 36.4148 13.226 37.0489C12.5552 37.683 11.7487 38 10.8065 38ZM29.9726 38C29.0304 38 28.2272 37.6798 27.563 37.0394C26.8989 36.3989 26.5668 35.629 26.5668 34.7295C26.5668 33.83 26.9022 33.0632 27.573 32.4291C28.2438 31.795 29.0503 31.478 29.9925 31.478C30.9347 31.478 31.7378 31.7982 32.402 32.4386C33.0662 33.079 33.3983 33.849 33.3983 34.7485C33.3983 35.648 33.0628 36.4148 32.392 37.0489C31.7212 37.683 30.9147 38 29.9726 38ZM0 4.48391V1.76639H5.50312L13.568 18.2527H27.2172L34.8215 5.57092H38L30.3146 19.2944C29.9667 19.8681 29.5151 20.3286 28.9597 20.6758C28.4043 21.023 27.7965 21.1967 27.1361 21.1967H12.7615L10.1049 25.907H33.3983V28.6246H10.5318C9.34076 28.6246 8.43417 28.1716 7.81206 27.2658C7.18995 26.36 7.14773 25.439 7.68539 24.503L10.7216 19.1585L3.70037 4.48391H0Z" fill="#2D221E"/>
</svg>
