<svg width="355" height="73" viewBox="0 0 355 73" fill="none" xmlns="http://www.w3.org/2000/svg">
<path d="M89.3438 51.297C89.3438 47.7032 90.2552 44.8491 92.0781 42.7345C93.901 40.6199 96.5312 39.5626 99.9688 39.5626C101.948 39.5626 103.625 39.8699 105 40.4845C106.375 41.0991 107.344 41.9897 107.906 43.1564C108.281 43.9272 108.219 44.448 107.719 44.7189L105.844 45.7189C105.188 46.073 104.646 45.8751 104.219 45.1251C103.948 44.646 103.443 44.2137 102.703 43.8282C101.974 43.4428 101.115 43.2501 100.125 43.2501C97.9375 43.2501 96.4062 43.9428 95.5312 45.3282C94.6562 46.7032 94.2188 48.6928 94.2188 51.297C94.2188 53.9012 94.6562 55.896 95.5312 57.2814C96.4062 58.6564 97.9375 59.3439 100.125 59.3439C101.302 59.3439 102.292 59.0782 103.094 58.547C103.906 58.0157 104.469 57.5105 104.781 57.0314C105.292 56.2501 105.833 56.0522 106.406 56.4376L108.281 57.6876C108.792 58.0314 108.844 58.5522 108.438 59.2501C107.833 60.2918 106.797 61.1824 105.328 61.922C103.859 62.6616 102.073 63.0314 99.9688 63.0314C96.5833 63.0314 93.9635 61.9741 92.1094 59.8595C90.2656 57.7449 89.3438 54.8907 89.3438 51.297ZM121.006 54.297C121.006 51.6407 121.689 49.5574 123.053 48.047C124.428 46.5366 126.47 45.7814 129.178 45.7814C131.886 45.7814 133.923 46.5366 135.288 48.047C136.663 49.5574 137.35 51.6407 137.35 54.297C137.35 56.9532 136.663 59.0366 135.288 60.547C133.923 62.0574 131.886 62.8126 129.178 62.8126C126.47 62.8126 124.428 62.0574 123.053 60.547C121.689 59.0366 121.006 56.9532 121.006 54.297ZM125.631 54.297C125.631 56.2762 125.933 57.6824 126.538 58.5157C127.152 59.3387 128.032 59.7501 129.178 59.7501C130.324 59.7501 131.199 59.3387 131.803 58.5157C132.418 57.6824 132.725 56.2762 132.725 54.297C132.725 52.3178 132.418 50.9168 131.803 50.0939C131.199 49.2605 130.324 48.8439 129.178 48.8439C128.032 48.8439 127.152 49.2605 126.538 50.0939C125.933 50.9168 125.631 52.3178 125.631 54.297ZM149.778 49.2189C149.164 49.2189 148.856 48.9585 148.856 48.4376V46.8751C148.856 46.3543 149.164 46.0939 149.778 46.0939H150.653V43.9064C150.653 41.9897 151.2 40.7137 152.294 40.0782C153.388 39.4428 154.69 39.1251 156.2 39.1251C156.919 39.1251 157.533 39.1668 158.044 39.2501C158.565 39.3335 159.023 39.4376 159.419 39.5626C159.794 39.6876 159.929 39.948 159.825 40.3439L159.356 42.1095C159.263 42.4532 159.023 42.5574 158.638 42.422C158.408 42.3387 158.085 42.2814 157.669 42.2501C157.263 42.2085 156.94 42.1876 156.7 42.1876C155.94 42.1876 155.471 42.4532 155.294 42.9845C155.117 43.5157 155.028 44.3439 155.028 45.4689V46.0939H157.091C157.705 46.0939 158.013 46.3543 158.013 46.8751V48.4376C158.013 48.9585 157.705 49.2189 157.091 49.2189H155.028V61.5626C155.028 62.1876 154.716 62.5001 154.091 62.5001H151.591C150.966 62.5001 150.653 62.1876 150.653 61.5626V49.2189H149.778ZM170.034 49.2189C169.42 49.2189 169.113 48.9585 169.113 48.4376V46.8751C169.113 46.3543 169.42 46.0939 170.034 46.0939H170.909V43.9064C170.909 41.9897 171.456 40.7137 172.55 40.0782C173.644 39.4428 174.946 39.1251 176.456 39.1251C177.175 39.1251 177.79 39.1668 178.3 39.2501C178.821 39.3335 179.279 39.4376 179.675 39.5626C180.05 39.6876 180.185 39.948 180.081 40.3439L179.613 42.1095C179.519 42.4532 179.279 42.5574 178.894 42.422C178.665 42.3387 178.342 42.2814 177.925 42.2501C177.519 42.2085 177.196 42.1876 176.956 42.1876C176.196 42.1876 175.727 42.4532 175.55 42.9845C175.373 43.5157 175.284 44.3439 175.284 45.4689V46.0939H177.347C177.961 46.0939 178.269 46.3543 178.269 46.8751V48.4376C178.269 48.9585 177.961 49.2189 177.347 49.2189H175.284V61.5626C175.284 62.1876 174.972 62.5001 174.347 62.5001H171.847C171.222 62.5001 170.909 62.1876 170.909 61.5626V49.2189H170.034ZM189.963 54.297C189.963 51.6616 190.619 49.5835 191.931 48.0626C193.254 46.5418 195.119 45.7814 197.525 45.7814C200.317 45.7814 202.39 46.5001 203.744 47.9376C205.098 49.3751 205.775 51.6876 205.775 54.8751C205.775 55.5001 205.483 55.8126 204.9 55.8126H194.588C194.754 57.5418 195.181 58.6303 195.869 59.0782C196.556 59.5262 197.353 59.7501 198.259 59.7501C199.124 59.7501 199.785 59.6355 200.244 59.4064C200.702 59.1772 201.088 58.8647 201.4 58.4689C201.754 58.0105 202.192 57.9376 202.713 58.2501L204.275 59.2032C204.89 59.5782 204.978 60.0262 204.541 60.547C203.905 61.3074 203.16 61.8751 202.306 62.2501C201.452 62.6251 200.103 62.8126 198.259 62.8126C195.27 62.8126 193.14 62.0522 191.869 60.5314C190.598 59.0105 189.963 56.9324 189.963 54.297ZM194.603 52.6876H201.4C201.4 51.5626 201.119 50.646 200.556 49.9376C199.994 49.2189 199.098 48.8595 197.869 48.8595C196.89 48.8595 196.114 49.2032 195.541 49.8907C194.968 50.5678 194.655 51.5001 194.603 52.6876ZM217.906 54.297C217.906 51.6616 218.562 49.5835 219.875 48.0626C221.198 46.5418 223.062 45.7814 225.469 45.7814C228.26 45.7814 230.333 46.5001 231.688 47.9376C233.042 49.3751 233.719 51.6876 233.719 54.8751C233.719 55.5001 233.427 55.8126 232.844 55.8126H222.531C222.698 57.5418 223.125 58.6303 223.812 59.0782C224.5 59.5262 225.297 59.7501 226.203 59.7501C227.068 59.7501 227.729 59.6355 228.188 59.4064C228.646 59.1772 229.031 58.8647 229.344 58.4689C229.698 58.0105 230.135 57.9376 230.656 58.2501L232.219 59.2032C232.833 59.5782 232.922 60.0262 232.484 60.547C231.849 61.3074 231.104 61.8751 230.25 62.2501C229.396 62.6251 228.047 62.8126 226.203 62.8126C223.214 62.8126 221.083 62.0522 219.812 60.5314C218.542 59.0105 217.906 56.9324 217.906 54.297ZM222.547 52.6876H229.344C229.344 51.5626 229.062 50.646 228.5 49.9376C227.938 49.2189 227.042 48.8595 225.812 48.8595C224.833 48.8595 224.057 49.2032 223.484 49.8907C222.911 50.5678 222.599 51.5001 222.547 52.6876ZM247.366 60.8282C246.72 60.3387 246.564 59.8439 246.897 59.3439L248.1 57.5314C248.496 56.9376 249.074 56.9064 249.834 57.4376C250.418 57.8439 251.178 58.2657 252.116 58.7032C253.064 59.1303 254.058 59.3439 255.1 59.3439C255.829 59.3439 256.532 59.2605 257.209 59.0939C257.886 58.9272 258.402 58.6043 258.756 58.1251C259.11 57.646 259.288 57.0782 259.288 56.422C259.288 55.9532 259.209 55.5418 259.053 55.1876C258.897 54.8335 258.642 54.5418 258.288 54.3126C257.933 54.0835 257.569 53.8907 257.194 53.7345C256.538 53.4637 255.709 53.198 254.709 52.9376C253.72 52.6668 252.741 52.3439 251.772 51.9689C250.907 51.6355 250.116 51.1772 249.397 50.5939C248.678 50.0105 248.121 49.3543 247.725 48.6251C247.329 47.896 247.131 46.922 247.131 45.7032C247.131 44.2553 247.6 43.0157 248.538 41.9845C249.475 40.9532 250.553 40.2918 251.772 40.0001C252.991 39.7085 254.22 39.5626 255.459 39.5626C256.689 39.5626 257.954 39.7501 259.256 40.1251C260.569 40.5001 261.558 40.9689 262.225 41.5314C262.881 42.0835 263.043 42.5835 262.709 43.0314L261.444 44.7345C261.017 45.3178 260.444 45.3647 259.725 44.8751C259.267 44.5626 258.636 44.2137 257.834 43.8282C257.043 43.4428 256.215 43.2501 255.35 43.2501C254.735 43.2501 254.168 43.3022 253.647 43.4064C253.136 43.5105 252.683 43.7605 252.288 44.1564C251.892 44.5522 251.694 45.0418 251.694 45.6251C251.694 46.1876 251.84 46.646 252.131 47.0001C252.423 47.3439 252.746 47.6043 253.1 47.7814C253.454 47.948 253.814 48.0887 254.178 48.2032C255.303 48.5678 256.308 48.8907 257.194 49.172C258.079 49.4428 258.897 49.7449 259.647 50.0782C260.689 50.547 261.485 51.0157 262.038 51.4845C262.59 51.9532 263.043 52.5939 263.397 53.4064C263.761 54.2189 263.944 55.1876 263.944 56.3126C263.944 57.9793 263.413 59.3595 262.35 60.4532C261.288 61.5366 260.105 62.2345 258.803 62.547C257.511 62.8699 256.251 63.0314 255.022 63.0314C253.209 63.0314 251.735 62.8543 250.6 62.5001C249.465 62.1564 248.386 61.5991 247.366 60.8282ZM277.7 62.5001C277.075 62.5001 276.762 62.1876 276.762 61.5626V40.3751C276.762 39.7501 277.075 39.4376 277.7 39.4376H280.2C280.825 39.4376 281.137 39.7501 281.137 40.3751V46.6876C281.137 47.1043 281.117 47.521 281.075 47.9376H281.169C281.648 47.1147 282.257 46.5522 282.997 46.2501C283.736 45.9376 284.627 45.7814 285.669 45.7814C287.294 45.7814 288.637 46.2918 289.7 47.3126C290.762 48.3335 291.294 50.198 291.294 52.9064V61.5626C291.294 62.1876 290.981 62.5001 290.356 62.5001H287.856C287.231 62.5001 286.919 62.1876 286.919 61.5626V54.0314C286.919 51.7605 286.762 50.3282 286.45 49.7345C286.137 49.1407 285.466 48.8439 284.434 48.8439C283.341 48.8439 282.518 49.271 281.966 50.1251C281.414 50.9689 281.137 52.7293 281.137 55.4064V61.5626C281.137 62.1876 280.825 62.5001 280.2 62.5001H277.7ZM304.238 54.297C304.238 51.6407 304.92 49.5574 306.284 48.047C307.659 46.5366 309.701 45.7814 312.409 45.7814C315.118 45.7814 317.154 46.5366 318.519 48.047C319.894 49.5574 320.581 51.6407 320.581 54.297C320.581 56.9532 319.894 59.0366 318.519 60.547C317.154 62.0574 315.118 62.8126 312.409 62.8126C309.701 62.8126 307.659 62.0574 306.284 60.547C304.92 59.0366 304.238 56.9532 304.238 54.297ZM308.863 54.297C308.863 56.2762 309.165 57.6824 309.769 58.5157C310.383 59.3387 311.264 59.7501 312.409 59.7501C313.555 59.7501 314.43 59.3387 315.034 58.5157C315.649 57.6824 315.956 56.2762 315.956 54.297C315.956 52.3178 315.649 50.9168 315.034 50.0939C314.43 49.2605 313.555 48.8439 312.409 48.8439C311.264 48.8439 310.383 49.2605 309.769 50.0939C309.165 50.9168 308.863 52.3178 308.863 54.297ZM334.494 68.7501C333.869 68.7501 333.556 68.4376 333.556 67.8126V47.0314C333.556 46.4064 333.869 46.0939 334.494 46.0939H336.963C337.483 46.0939 337.765 46.4064 337.806 47.0314L337.869 47.9376H337.931C338.473 47.0418 339.077 46.4585 339.744 46.1876C340.41 45.9168 341.213 45.7814 342.15 45.7814C344.598 45.7814 346.317 46.6303 347.306 48.3282C348.306 50.0157 348.806 52.0053 348.806 54.297C348.806 56.5887 348.306 58.5835 347.306 60.2814C346.317 61.9689 344.598 62.8126 342.15 62.8126C341.213 62.8126 340.41 62.6772 339.744 62.4064C339.077 62.1355 338.473 61.5522 337.931 60.6564H337.869C337.91 61.073 337.931 61.4897 337.931 61.9064V67.8126C337.931 68.4376 337.619 68.7501 336.994 68.7501H334.494ZM337.931 55.0001C337.931 56.4064 338.207 57.5522 338.759 58.4376C339.322 59.3126 339.994 59.7501 340.775 59.7501C342.181 59.7501 343.098 59.2605 343.525 58.2814C343.963 57.2918 344.181 55.9637 344.181 54.297C344.181 52.6303 343.963 51.3074 343.525 50.3282C343.098 49.3387 342.181 48.8439 340.775 48.8439C339.994 48.8439 339.322 49.2866 338.759 50.172C338.207 51.047 337.931 52.1876 337.931 53.5939V55.0001Z" fill="#FAF8F4"/>
<mask id="path-2-inside-1_65_4308" fill="white">
<path d="M4.94111 36.4286C4.22499 36.322 3.56685 36.8175 3.50532 37.5396C3.18998 41.2394 3.5446 44.9745 4.55377 48.536C5.68166 52.5166 7.60013 56.185 10.176 59.2866C12.7518 62.3882 15.9234 64.8486 19.4704 66.4971C23.0174 68.1456 26.8548 68.9426 30.7164 68.8329C34.5779 68.7231 38.371 67.7091 41.8323 65.8614C45.2935 64.0137 48.3401 61.3765 50.7603 58.1329C53.1806 54.8892 54.9166 51.1169 55.8478 47.0778C56.6753 43.4887 56.8497 39.7654 56.366 36.1128C56.2668 35.3639 55.5427 34.8693 54.8115 35.021C54.1241 35.1635 53.6842 35.8271 53.7769 36.5312C54.2098 39.8181 54.0517 43.1682 53.3071 46.3978C52.4674 50.0396 50.9021 53.4409 48.7199 56.3656C46.5377 59.2902 43.7908 61.668 40.6699 63.334C37.549 65 34.129 65.9143 30.6472 66.0132C27.1655 66.1122 23.7054 65.3936 20.5072 63.9072C17.3091 62.4209 14.4495 60.2024 12.1269 57.4058C9.80441 54.6093 8.07461 51.3016 7.05765 47.7126C6.15943 44.5425 5.8363 41.2201 6.10165 37.9262C6.15984 37.2038 5.65723 36.5353 4.94111 36.4286Z"/>
</mask>
<path d="M4.94111 36.4286C4.22499 36.322 3.56685 36.8175 3.50532 37.5396C3.18998 41.2394 3.5446 44.9745 4.55377 48.536C5.68166 52.5166 7.60013 56.185 10.176 59.2866C12.7518 62.3882 15.9234 64.8486 19.4704 66.4971C23.0174 68.1456 26.8548 68.9426 30.7164 68.8329C34.5779 68.7231 38.371 67.7091 41.8323 65.8614C45.2935 64.0137 48.3401 61.3765 50.7603 58.1329C53.1806 54.8892 54.9166 51.1169 55.8478 47.0778C56.6753 43.4887 56.8497 39.7654 56.366 36.1128C56.2668 35.3639 55.5427 34.8693 54.8115 35.021C54.1241 35.1635 53.6842 35.8271 53.7769 36.5312C54.2098 39.8181 54.0517 43.1682 53.3071 46.3978C52.4674 50.0396 50.9021 53.4409 48.7199 56.3656C46.5377 59.2902 43.7908 61.668 40.6699 63.334C37.549 65 34.129 65.9143 30.6472 66.0132C27.1655 66.1122 23.7054 65.3936 20.5072 63.9072C17.3091 62.4209 14.4495 60.2024 12.1269 57.4058C9.80441 54.6093 8.07461 51.3016 7.05765 47.7126C6.15943 44.5425 5.8363 41.2201 6.10165 37.9262C6.15984 37.2038 5.65723 36.5353 4.94111 36.4286Z" fill="#FAF8F4" stroke="#FAF8F4" stroke-width="2" mask="url(#path-2-inside-1_65_4308)"/>
<mask id="path-3-inside-2_65_4308" fill="white">
<path d="M55.7709 36.4133C55.7709 39.4366 44.196 41.8875 29.9177 41.8875C15.6393 41.8875 4.06445 39.4366 4.06445 36.4133C4.06445 33.39 15.6393 30.9391 29.9177 30.9391C44.196 30.9391 55.7709 33.39 55.7709 36.4133ZM11.7467 36.4133C11.7467 38.5382 19.8821 40.2608 29.9177 40.2608C39.9532 40.2608 48.0887 38.5382 48.0887 36.4133C48.0887 34.2883 39.9532 32.5657 29.9177 32.5657C19.8821 32.5657 11.7467 34.2883 11.7467 36.4133Z"/>
</mask>
<path d="M55.7709 36.4133C55.7709 39.4366 44.196 41.8875 29.9177 41.8875C15.6393 41.8875 4.06445 39.4366 4.06445 36.4133C4.06445 33.39 15.6393 30.9391 29.9177 30.9391C44.196 30.9391 55.7709 33.39 55.7709 36.4133ZM11.7467 36.4133C11.7467 38.5382 19.8821 40.2608 29.9177 40.2608C39.9532 40.2608 48.0887 38.5382 48.0887 36.4133C48.0887 34.2883 39.9532 32.5657 29.9177 32.5657C19.8821 32.5657 11.7467 34.2883 11.7467 36.4133Z" fill="#FAF8F4" stroke="#FAF8F4" stroke-width="2" mask="url(#path-3-inside-2_65_4308)"/>
<mask id="path-4-inside-3_65_4308" fill="white">
<path d="M49.0384 58.3205C48.5624 59.0442 48.7314 60.072 49.4942 60.4588C50.6115 61.0256 51.8498 61.3418 53.1552 61.3886C54.9992 61.4546 56.9203 60.981 58.7483 60.0096C60.5762 59.0382 62.2547 57.599 63.6349 55.8196C65.0151 54.0401 66.0546 51.9753 66.6611 49.808C67.2676 47.6406 67.4226 45.4378 67.1122 43.3944C66.8018 41.3511 66.0357 39.5304 64.8817 38.0936C63.7277 36.6569 62.2214 35.6483 60.4963 35.1574C59.0807 34.7545 57.5537 34.7104 56.0077 35.0229C55.4057 35.1446 55.0193 35.743 55.0585 36.4002C55.1132 37.3165 55.9566 37.9498 56.8095 37.8714C57.708 37.7889 58.5881 37.8654 59.4186 38.1018C60.7515 38.4811 61.9152 39.2603 62.8068 40.3704C63.6984 41.4804 64.2904 42.8871 64.5302 44.4658C64.77 46.0445 64.6503 47.7465 64.1816 49.421C63.713 51.0955 62.9099 52.6908 61.8436 54.0656C60.7772 55.4405 59.4804 56.5524 58.0681 57.3029C56.6558 58.0534 55.1715 58.4194 53.7468 58.3683C52.8604 58.3366 52.014 58.144 51.2359 57.8005C50.4561 57.4564 49.5144 57.5969 49.0384 58.3205Z"/>
</mask>
<path d="M49.0384 58.3205C48.5624 59.0442 48.7314 60.072 49.4942 60.4588C50.6115 61.0256 51.8498 61.3418 53.1552 61.3886C54.9992 61.4546 56.9203 60.981 58.7483 60.0096C60.5762 59.0382 62.2547 57.599 63.6349 55.8196C65.0151 54.0401 66.0546 51.9753 66.6611 49.808C67.2676 47.6406 67.4226 45.4378 67.1122 43.3944C66.8018 41.3511 66.0357 39.5304 64.8817 38.0936C63.7277 36.6569 62.2214 35.6483 60.4963 35.1574C59.0807 34.7545 57.5537 34.7104 56.0077 35.0229C55.4057 35.1446 55.0193 35.743 55.0585 36.4002C55.1132 37.3165 55.9566 37.9498 56.8095 37.8714C57.708 37.7889 58.5881 37.8654 59.4186 38.1018C60.7515 38.4811 61.9152 39.2603 62.8068 40.3704C63.6984 41.4804 64.2904 42.8871 64.5302 44.4658C64.77 46.0445 64.6503 47.7465 64.1816 49.421C63.713 51.0955 62.9099 52.6908 61.8436 54.0656C60.7772 55.4405 59.4804 56.5524 58.0681 57.3029C56.6558 58.0534 55.1715 58.4194 53.7468 58.3683C52.8604 58.3366 52.014 58.144 51.2359 57.8005C50.4561 57.4564 49.5144 57.5969 49.0384 58.3205Z" fill="#FAF8F4" stroke="#FAF8F4" stroke-width="2" mask="url(#path-4-inside-3_65_4308)"/>
<path d="M30.7759 22.7079C30.2463 22.3824 29.1825 21.0705 28.7602 19.3862C28.2115 17.198 29.4793 15.3197 30.2783 13.7538C31.1593 12.0271 31.4608 8.51349 31.0442 5.74045C30.5499 4.13383 29.8651 3.14743 29.4096 2.49147C29.1802 2.16102 28.9542 1.8355 28.7214 1.50012" stroke="#FAF8F4" stroke-width="3" stroke-linecap="round"/>
<path d="M39.8133 23.63C39.1772 22.9852 37.5809 21.8489 36.7348 20.4729C36.2995 19.7649 36.4528 18.6881 36.4924 17.6357C36.5643 15.7231 38.6083 14.2279 39.4904 12.8482C39.8925 11.0622 40.0533 9.4441 39.7353 7.86005C39.5756 7.49262 39.338 7.17144 38.6131 6.11053" stroke="#FAF8F4" stroke-width="3" stroke-linecap="round"/>
<path d="M24.1762 23.63C23.3811 22.9852 21.3858 21.8489 20.3281 20.4729C19.784 19.7649 19.9756 18.6881 20.0251 17.6357C20.115 15.7231 22.67 14.2279 23.7727 12.8482C24.2752 11.0622 24.4763 9.4441 24.0787 7.86005C23.8792 7.49262 23.5821 7.17144 22.676 6.11053" stroke="#FAF8F4" stroke-width="3" stroke-linecap="round"/>
</svg>
