<svg width="40" height="40" viewBox="0 0 40 40" fill="none" xmlns="http://www.w3.org/2000/svg">
<path d="M0 19.4C0 8.2528 8.7334 0 20 0C31.2666 0 40 8.2528 40 19.4C40 30.5472 31.2666 38.8 20 38.8C17.9763 38.8 16.0348 38.5328 14.2106 38.0312C13.856 37.9336 13.4789 37.9612 13.1424 38.1096L9.17268 39.862C8.13428 40.3204 6.96212 39.582 6.92732 38.4472L6.8184 34.8896C6.805 34.4512 6.6078 34.0416 6.28112 33.7492C2.3896 30.2691 0 25.2307 0 19.4ZM13.8651 15.7528L7.9901 25.0736C7.4263 25.968 8.52582 26.976 9.3681 26.3369L15.6788 21.5475C16.1057 21.2235 16.6956 21.2218 17.1243 21.5433L21.7971 25.0479C23.1992 26.0996 25.2004 25.7303 26.135 24.2476L32.01 14.9267C32.5737 14.0322 31.4742 13.0242 30.6319 13.6634L24.3212 18.4528C23.8943 18.7768 23.3044 18.7785 22.8757 18.4569L18.203 14.9524C16.8008 13.9008 14.7996 14.27 13.8651 15.7528Z" fill="#FAF8F4"/>
</svg>
