<svg width="48" height="48" viewBox="0 0 48 48" fill="none" xmlns="http://www.w3.org/2000/svg">
<g filter="url(#filter0_d_62_4220)">
<path d="M24.0019 0C18.5702 0 17.8885 0.0237506 15.7551 0.120835C13.6259 0.218336 12.1726 0.555423 10.9009 1.05001C9.58547 1.56085 8.46963 2.24419 7.35795 3.35629C6.24544 4.46796 5.5621 5.58381 5.04959 6.89882C4.55376 8.17092 4.21625 9.62468 4.12042 11.753C4.025 13.8864 4 14.5685 4 20.0002C4 25.4319 4.02417 26.1115 4.12083 28.2449C4.21875 30.3741 4.55584 31.8274 5.05001 33.0991C5.56127 34.4145 6.24461 35.5304 7.3567 36.642C8.46796 37.7546 9.58381 38.4396 10.8984 38.9504C12.1709 39.445 13.6247 39.7821 15.7535 39.8796C17.8868 39.9767 18.5681 40.0004 23.9994 40.0004C29.4315 40.0004 30.1111 39.9767 32.2445 39.8796C34.3737 39.7821 35.8287 39.445 37.1012 38.9504C38.4162 38.4396 39.5304 37.7546 40.6416 36.642C41.7541 35.5304 42.4375 34.4145 42.95 33.0995C43.4417 31.8274 43.7792 30.3736 43.8792 28.2453C43.975 26.1119 44 25.4319 44 20.0002C44 14.5685 43.975 13.8868 43.8792 11.7535C43.7792 9.62427 43.4417 8.17092 42.95 6.89924C42.4375 5.58381 41.7541 4.46796 40.6416 3.35629C39.5291 2.24377 38.4166 1.56043 37.0999 1.05001C35.8249 0.555423 34.3707 0.218336 32.2415 0.120835C30.1082 0.0237506 29.429 0 23.9956 0H24.0019ZM22.2077 3.6042C22.7402 3.60337 23.3344 3.6042 24.0019 3.6042C29.3419 3.6042 29.9749 3.62337 32.0836 3.71921C34.0336 3.80837 35.092 4.13421 35.797 4.40796C36.7303 4.77047 37.3958 5.2038 38.0954 5.90381C38.7954 6.60382 39.2287 7.27049 39.592 8.20384C39.8658 8.90801 40.192 9.96635 40.2808 11.9164C40.3766 14.0247 40.3975 14.6581 40.3975 19.9956C40.3975 25.3332 40.3766 25.9665 40.2808 28.0749C40.1916 30.0249 39.8658 31.0832 39.592 31.7874C39.2295 32.7208 38.7954 33.3853 38.0954 34.0849C37.3953 34.7849 36.7308 35.2183 35.797 35.5808C35.0928 35.8558 34.0336 36.1808 32.0836 36.27C29.9753 36.3658 29.3419 36.3866 24.0019 36.3866C18.6614 36.3866 18.0285 36.3658 15.9201 36.27C13.9701 36.18 12.9118 35.8541 12.2063 35.5804C11.273 35.2179 10.6063 34.7845 9.90631 34.0845C9.2063 33.3845 8.77297 32.7195 8.40963 31.7857C8.13588 31.0816 7.80962 30.0232 7.72087 28.0732C7.62504 25.9649 7.60587 25.3315 7.60587 19.9906C7.60587 14.6497 7.62504 14.0197 7.72087 11.9114C7.81004 9.96135 8.13588 8.90301 8.40963 8.198C8.77213 7.26466 9.2063 6.59798 9.90631 5.89798C10.6063 5.19797 11.273 4.76463 12.2063 4.4013C12.9113 4.12629 13.9701 3.80129 15.9201 3.71171C17.7651 3.62837 18.4802 3.60337 22.2077 3.5992V3.6042ZM34.6778 6.92507C33.3528 6.92507 32.2778 7.99883 32.2778 9.32426C32.2778 10.6493 33.3528 11.7243 34.6778 11.7243C36.0028 11.7243 37.0778 10.6493 37.0778 9.32426C37.0778 7.99925 36.0028 6.92424 34.6778 6.92424V6.92507ZM24.0019 9.72927C18.3297 9.72927 13.7309 14.3281 13.7309 20.0002C13.7309 25.6723 18.3297 30.2691 24.0019 30.2691C29.674 30.2691 34.2711 25.6723 34.2711 20.0002C34.2711 14.3281 29.6736 9.72927 24.0015 9.72927H24.0019ZM24.0019 13.3335C27.6836 13.3335 30.6686 16.3181 30.6686 20.0002C30.6686 23.6819 27.6836 26.6669 24.0019 26.6669C20.3198 26.6669 17.3351 23.6819 17.3351 20.0002C17.3351 16.3181 20.3198 13.3335 24.0019 13.3335Z" fill="#FAF8F4"/>
</g>
<defs>
<filter id="filter0_d_62_4220" x="0" y="0" width="48" height="48.0005" filterUnits="userSpaceOnUse" color-interpolation-filters="sRGB">
<feFlood flood-opacity="0" result="BackgroundImageFix"/>
<feColorMatrix in="SourceAlpha" type="matrix" values="0 0 0 0 0 0 0 0 0 0 0 0 0 0 0 0 0 0 127 0" result="hardAlpha"/>
<feOffset dy="4"/>
<feGaussianBlur stdDeviation="2"/>
<feComposite in2="hardAlpha" operator="out"/>
<feColorMatrix type="matrix" values="0 0 0 0 0 0 0 0 0 0 0 0 0 0 0 0 0 0 0.25 0"/>
<feBlend mode="normal" in2="BackgroundImageFix" result="effect1_dropShadow_62_4220"/>
<feBlend mode="normal" in="SourceGraphic" in2="effect1_dropShadow_62_4220" result="shape"/>
</filter>
</defs>
</svg>
