<svg width="40" height="40" viewBox="0 0 40 40" fill="none" xmlns="http://www.w3.org/2000/svg">
<path fill-rule="evenodd" clip-rule="evenodd" d="M16.25 30C23.8439 30 30 23.8439 30 16.25C30 8.65608 23.8439 2.5 16.25 2.5C8.65608 2.5 2.5 8.65608 2.5 16.25C2.5 23.8439 8.65608 30 16.25 30ZM32.5 16.25C32.5 25.2246 25.2246 32.5 16.25 32.5C7.27537 32.5 0 25.2246 0 16.25C0 7.27537 7.27537 0 16.25 0C25.2246 0 32.5 7.27537 32.5 16.25Z" fill="#2D221E"/>
<path d="M25.8597 29.3554C25.9334 29.4554 26.0156 29.5511 26.1061 29.6416L35.7322 39.2678C36.7086 40.2441 38.2915 40.2441 39.2678 39.2678C40.2441 38.2915 40.2441 36.7086 39.2678 35.7322L29.6416 26.1061C29.5511 26.0156 29.4554 25.9334 29.3554 25.8597C28.3747 27.1949 27.1949 28.3747 25.8597 29.3554Z" fill="#2D221E"/>
</svg>
